<?xml version="1.0" standalone="no"?>
<!DOCTYPE svg PUBLIC "-//W3C//DTD SVG 20010904//EN"
 "http://www.w3.org/TR/2001/REC-SVG-20010904/DTD/svg10.dtd">
<svg version="1.0" xmlns="http://www.w3.org/2000/svg"
 width="512.000000pt" height="512.000000pt" viewBox="0 0 512.000000 512.000000"
 preserveAspectRatio="xMidYMid meet">
<metadata>
Created by potrace 1.14, written by Peter Selinger 2001-2017
</metadata>
<g transform="translate(0.000000,512.000000) scale(0.100000,-0.100000)"
fill="#000000" stroke="none">
<path d="M2026 4358 c-87 -12 -112 -38 -278 -288 l-153 -230 -50 3 -50 2 -2
57 c-2 70 -26 115 -73 137 -30 13 -74 16 -257 15 -211 -1 -222 -2 -252 -23
-42 -30 -52 -53 -56 -122 -4 -62 -11 -83 -25 -74 -15 9 -114 -17 -172 -46
-117 -59 -206 -183 -225 -314 -6 -41 -6 -2224 0 -2260 9 -54 32 -114 61 -159
60 -93 116 -136 226 -177 l65 -24 1775 0 c1708 0 1777 1 1830 19 170 58 282
197 298 368 4 40 6 561 6 1158 -2 1059 -2 1086 -22 1141 -26 73 -65 135 -116
182 -47 44 -136 92 -187 102 -19 3 -43 8 -54 10 -11 2 -190 4 -397 4 l-378 1
-43 68 c-270 414 -270 414 -343 443 -32 12 -1045 19 -1128 7z"/>
</g>
</svg>
