<?xml version="1.0" standalone="no"?>
<!DOCTYPE svg PUBLIC "-//W3C//DTD SVG 20010904//EN"
 "http://www.w3.org/TR/2001/REC-SVG-20010904/DTD/svg10.dtd">
<svg version="1.0" xmlns="http://www.w3.org/2000/svg"
 width="100.000000pt" height="100.000000pt" viewBox="0 0 100.000000 100.000000"
 preserveAspectRatio="xMidYMid meet">
<metadata>
Created by potrace 1.14, written by Peter Selinger 2001-2017
</metadata>
<g transform="translate(0.000000,100.000000) scale(0.100000,-0.100000)"
fill="#000000" stroke="none">
<path d="M376 849 c-14 -11 -26 -27 -26 -36 0 -11 -5 -13 -17 -7 -10 4 -44 10
-76 12 -44 3 -64 0 -85 -14 -15 -10 -40 -26 -57 -35 -16 -9 -36 -27 -42 -40
-15 -29 -18 -504 -3 -543 10 -27 43 -52 75 -58 11 -2 23 -7 27 -13 5 -6 8 -5
8 3 0 6 7 12 15 12 8 0 15 -6 15 -12 0 -9 3 -9 8 -3 10 15 52 16 52 2 0 -8 4
-7 9 2 8 13 12 13 27 0 11 -9 15 -9 10 -1 -4 6 -3 12 1 12 5 0 15 -6 22 -12
11 -10 13 -10 7 0 -9 16 6 16 23 0 11 -11 12 -10 6 0 -8 16 26 13 37 -3 5 -6
8 -5 8 3 0 16 27 16 33 0 4 -10 6 -10 6 0 1 6 8 12 16 12 8 0 15 -6 15 -12 0
-9 4 -8 10 2 8 12 11 13 19 1 7 -11 9 -11 14 0 5 12 7 12 15 0 8 -11 10 -11
15 0 4 12 7 11 16 -1 8 -12 11 -12 11 -1 0 11 3 11 17 0 10 -8 14 -9 10 -2 -5
8 0 11 13 10 11 -1 20 -6 20 -12 0 -5 5 -3 10 5 8 12 11 13 19 1 7 -11 9 -11
14 0 5 12 7 12 15 0 8 -11 10 -11 15 0 4 12 7 11 16 -1 8 -12 11 -12 11 -1 0
11 3 11 17 0 13 -11 15 -11 9 -1 -10 16 25 13 36 -3 5 -6 8 -5 8 3 0 6 7 12
15 12 8 0 15 -5 15 -11 0 -6 7 -3 16 6 13 13 19 13 32 3 12 -10 14 -10 8 0 -7
11 26 66 35 57 2 -2 4 46 3 106 -1 77 2 107 10 102 8 -5 8 -3 0 8 -7 9 -11 68
-10 164 l1 150 -27 30 c-27 30 -29 30 -143 33 -94 3 -115 6 -115 19 0 8 -13
28 -29 44 -29 28 -32 29 -129 29 -85 0 -103 -3 -126 -21z"/>
<path d="M924 154 c-18 -14 -18 -15 4 -4 12 6 22 13 22 15 0 8 -5 6 -26 -11z"/>
</g>
</svg>
